<svg width="17" height="11" viewBox="0 0 17 11" fill="none" xmlns="http://www.w3.org/2000/svg">
<path d="M17 10.2H0C0.16892 8.61916 0.705871 7.1034 1.56542 5.78099C2.22645 4.7314 3.11347 3.85212 4.15792 3.21111L4.44833 3.04367L3.0175 0.561161C2.96784 0.47714 2.95263 0.376304 2.9752 0.280771C2.99777 0.185238 3.05629 0.102806 3.13792 0.0515546C3.17827 0.0267635 3.22303 0.0104794 3.26958 0.00365178C3.31612 -0.00317583 3.36352 -0.000410269 3.40902 0.0117874C3.45451 0.023985 3.49719 0.0453704 3.53455 0.0746964C3.57192 0.104022 3.60324 0.140702 3.62667 0.182596L5.1 2.73063C6.18985 2.28304 7.35479 2.0604 8.52833 2.07542C9.68116 2.06096 10.8251 2.28374 11.8929 2.73063L13.3592 0.182596C13.3832 0.14031 13.4152 0.103436 13.4534 0.074182C13.4916 0.0449277 13.5352 0.0238941 13.5815 0.0123397C13.6278 0.000785255 13.6758 -0.00105256 13.7228 0.00693643C13.7698 0.0149254 13.8148 0.0325771 13.855 0.0588348C13.9354 0.111262 13.9925 0.194224 14.0137 0.289664C14.0349 0.385105 14.0186 0.485299 13.9683 0.568441L12.5375 3.05823L12.8917 3.26207C13.9326 3.92811 14.812 4.82944 15.4629 5.89747C16.2761 7.19842 16.8009 8.66731 17 10.2ZM11.6875 6.93852C11.6875 7.1316 11.7621 7.31677 11.895 7.4533C12.0278 7.58983 12.208 7.66653 12.3958 7.66653C12.5837 7.66653 12.7639 7.58983 12.8967 7.4533C13.0295 7.31677 13.1042 7.1316 13.1042 6.93852C13.1042 6.74544 13.0295 6.56027 12.8967 6.42374C12.7639 6.28721 12.5837 6.21051 12.3958 6.21051C12.208 6.21051 12.0278 6.28721 11.895 6.42374C11.7621 6.56027 11.6875 6.74544 11.6875 6.93852ZM3.89583 6.93852C3.89583 7.1316 3.97046 7.31677 4.1033 7.4533C4.23614 7.58983 4.41631 7.66653 4.60417 7.66653C4.79203 7.66653 4.9722 7.58983 5.10503 7.4533C5.23787 7.31677 5.3125 7.1316 5.3125 6.93852C5.3125 6.74544 5.23787 6.56027 5.10503 6.42374C4.9722 6.28721 4.79203 6.21051 4.60417 6.21051C4.41631 6.21051 4.23614 6.28721 4.1033 6.42374C3.97046 6.56027 3.89583 6.74544 3.89583 6.93852Z" fill="#EEEEEE"/>
</svg>
