<svg width="15" height="16" viewBox="0 0 15 16" fill="none" xmlns="http://www.w3.org/2000/svg">
<path d="M7.5 0.67218C3.35813 0.67218 0 4.03031 0 8.17218C0 12.3141 3.35813 15.6722 7.5 15.6722C11.6419 15.6722 15 12.3141 15 8.17218C15 4.03031 11.6419 0.67218 7.5 0.67218ZM4.35125 5.47218C4.8225 5.47218 5.18687 5.81531 5.22937 6.22218C5.2725 6.58656 5.1225 6.90781 4.71563 7.10093C4.50125 7.20781 4.41562 7.20843 4.3725 7.14405C4.35125 7.10093 4.3725 7.05843 4.41563 7.01531C4.80125 6.69406 4.80125 6.43656 4.75812 6.07281C4.73688 5.83656 4.56563 5.68655 4.39375 5.68655C3.64375 5.68655 2.5725 7.35781 2.7225 8.57968C2.78688 9.05093 3.06562 9.60843 3.66562 9.60843C3.85812 9.60843 4.07188 9.54405 4.26562 9.45843C4.57812 9.29343 4.765 9.16468 4.95125 8.95843C4.90562 8.40531 5.39125 7.67968 6.10812 7.67968C6.43 7.67968 6.68687 7.80781 6.70812 8.04406C6.75062 8.36531 6.4725 8.4078 6.38687 8.4078C6.30125 8.4078 6.15062 8.38655 6.15062 8.30155C6.12937 8.2153 6.34375 8.25781 6.3225 8.06531C6.30062 7.93656 6.1725 7.89406 6.04375 7.89406C5.59375 7.89406 5.33687 8.51531 5.40063 8.90093C5.4225 9.07281 5.50812 9.24406 5.68 9.24406C5.80813 9.24406 6.00125 9.05031 6.06563 8.77218C6.10813 8.57968 6.28 8.45093 6.43 8.45093C6.49375 8.45093 6.53625 8.47218 6.55813 8.55781V8.64406C6.53688 8.72968 6.4725 8.98656 6.49437 9.05093C6.49437 9.09406 6.51562 9.15781 6.60063 9.15781C6.65812 9.15781 6.87313 9.04531 7.08625 8.87093C7.15938 8.50218 7.24437 8.05968 7.24437 8.0228C7.26562 7.8728 7.33 7.72281 7.63 7.72281C7.69438 7.72281 7.73688 7.74405 7.75813 7.82968V7.91593L7.67313 8.30155C7.95125 7.93718 8.35875 7.68031 8.61562 7.68031C8.72312 7.68031 8.80875 7.74406 8.80875 7.85156C8.80875 7.91593 8.80875 8.0228 8.76562 8.1303C8.68 8.36593 8.5725 8.7303 8.50812 9.05155C8.50812 9.13718 8.53 9.22281 8.6375 9.22281C8.74437 9.22281 9.06563 9.09406 9.3225 8.75156L9.32687 8.74906C9.32563 8.70656 9.3225 8.6653 9.3225 8.6228C9.3225 8.36593 9.34438 8.15156 9.3875 8.00156C9.43 7.83031 9.64438 7.68031 9.77313 7.68031C9.8375 7.68031 9.90125 7.72343 9.90125 7.78718C9.90125 7.80905 9.90125 7.85156 9.88 7.87281C9.79437 8.15156 9.73 8.40843 9.73 8.66593C9.73 8.81593 9.75125 9.02968 9.79375 9.15843C9.79375 9.17968 9.81562 9.20156 9.8375 9.20156C9.88 9.20156 10.18 8.92343 10.3938 8.55906C10.2013 8.43031 10.0938 8.21593 10.0938 7.95906C10.0938 7.50906 10.3725 7.27343 10.63 7.27343C10.8444 7.27343 11.0156 7.42343 11.0156 7.72343C11.0156 7.91593 10.9513 8.12968 10.8444 8.32343H10.9081C10.9761 8.32564 11.0438 8.31342 11.1067 8.28756C11.1696 8.26171 11.2263 8.22281 11.2731 8.17343C11.2928 8.14096 11.3221 8.11541 11.3569 8.10031C11.5662 7.83468 11.8756 7.63781 12.2381 7.63781C12.5381 7.63781 12.8156 7.76593 12.8375 8.00156C12.88 8.32343 12.6012 8.38781 12.5156 8.38781L12.5144 8.38656C12.4281 8.38656 12.2788 8.36468 12.2788 8.27906C12.2788 8.19343 12.4719 8.23656 12.45 8.04406C12.4288 7.91531 12.3 7.87218 12.1713 7.87218C11.7425 7.87218 11.465 8.42906 11.5287 8.87906C11.55 9.05093 11.6356 9.24343 11.8069 9.24343C11.9356 9.24343 12.1287 9.05093 12.2144 8.77218C12.2569 8.60093 12.4288 8.45093 12.5787 8.45093C12.6431 8.45093 12.685 8.47218 12.7069 8.55781C12.7069 8.60093 12.7069 8.68655 12.6213 8.96531C12.515 9.15781 12.5144 9.2653 12.5356 9.35093C12.5569 9.52218 12.6425 9.65093 12.7288 9.71531C12.75 9.73656 12.7712 9.77906 12.7712 9.77906C12.7712 9.82218 12.75 9.8653 12.6856 9.8653C12.6644 9.8653 12.6431 9.8653 12.6213 9.84343C12.3 9.71531 12.1713 9.50093 12.1281 9.28656C12 9.43655 11.85 9.52218 11.6781 9.52218C11.4 9.52218 11.1219 9.26531 11.0781 8.94343C11.0658 8.80644 11.0818 8.66839 11.125 8.53781C10.9981 8.61906 10.8612 8.66468 10.7356 8.66468H10.6294C10.35 9.07218 10.05 9.35093 9.83562 9.47906C9.76283 9.51781 9.68237 9.54 9.6 9.54405C9.5575 9.54405 9.49312 9.52218 9.47187 9.47906C9.4125 9.38406 9.37438 9.23406 9.35125 9.06218C9.05062 9.39155 8.63562 9.56531 8.44312 9.56531C8.22875 9.56531 8.10063 9.43655 8.07938 9.22155V8.98656C8.14313 8.51531 8.315 8.23656 8.315 8.15093C8.31441 8.13962 8.3097 8.12892 8.30175 8.12086C8.2938 8.1128 8.28317 8.10793 8.27187 8.10718C8.12187 8.10718 7.62937 8.62218 7.54313 8.96531L7.47875 9.24343C7.43625 9.43655 7.24312 9.56531 7.115 9.56531C7.05062 9.56531 7.0075 9.54343 6.98625 9.45781V9.37218L7.015 9.22656C6.74313 9.42031 6.47125 9.54405 6.34312 9.54405C6.15063 9.54405 6.04313 9.43655 6.02187 9.28656C5.89313 9.45781 5.74375 9.54405 5.55062 9.54405C5.33062 9.54405 5.11562 9.39406 5.01188 9.17343C4.85938 9.34531 4.685 9.51906 4.47937 9.65093C4.17937 9.84406 3.83687 9.99406 3.42937 9.99406C3.06562 9.99406 2.74375 9.80093 2.5725 9.62968C2.315 9.39406 2.16563 9.02968 2.14375 8.68655C2.01562 7.63656 2.65812 6.28656 3.64375 5.68655C3.88 5.55843 4.11562 5.47218 4.35125 5.47218ZM10.4575 7.52906C10.3925 7.52906 10.35 7.63656 10.35 7.74343C10.35 7.91468 10.4356 8.10781 10.5431 8.21531C10.585 8.09838 10.6066 7.97514 10.6069 7.85093C10.6069 7.63656 10.5219 7.52906 10.4575 7.52906Z" fill="#EEEEEE"/>
</svg>
