<svg width="13" height="15" viewBox="0 0 13 15" fill="none" xmlns="http://www.w3.org/2000/svg">
<path d="M12.8452 0.208472C12.7296 0.0757512 12.5647 0 12.3919 0H0.608463C0.43566 0 0.270766 0.0757512 0.155159 0.208472C0.039551 0.341194 -0.0152106 0.518364 0.00365169 0.694908L1.34348 13.105C1.37026 13.3573 1.54367 13.5682 1.78097 13.6377L6.33226 14.9756C6.38703 14.9919 6.44361 15 6.49959 15C6.55557 15 6.61216 14.9919 6.66692 14.9756L11.2182 13.6377C11.4555 13.5682 11.6283 13.3573 11.6557 13.105L12.9961 0.694908C13.0156 0.518364 12.9608 0.341194 12.8452 0.208472ZM9.85648 6.30676L9.5851 10.8675L6.51967 11.8986L3.45424 10.8675L3.33802 8.68635H4.8896L4.92854 9.67801L6.51967 10.2333L8.1108 9.67801L8.22701 7.89378H4.81233L4.73505 6.30739H8.3049L8.42111 4.72099H3.06604L2.94982 3.13397H10.0506L9.85648 6.30676Z" fill="#EEEEEE"/>
</svg>
