<svg width="11" height="17" viewBox="0 0 11 17" fill="none" xmlns="http://www.w3.org/2000/svg">
<path d="M8 5.67218H3M8 5.67218C8.66304 5.67218 9.29893 5.40879 9.76777 4.93995C10.2366 4.47111 10.5 3.83522 10.5 3.17218C10.5 2.50914 10.2366 1.87325 9.76777 1.40441C9.29893 0.935572 8.66304 0.67218 8 0.67218H3M8 5.67218C8.66304 5.67218 9.29893 5.93557 9.76777 6.40441C10.2366 6.87325 10.5 7.50914 10.5 8.17218C10.5 8.83522 10.2366 9.47111 9.76777 9.93995C9.29893 10.4088 8.66304 10.6722 8 10.6722C7.33696 10.6722 6.70107 10.4088 6.23223 9.93995C5.76339 9.47111 5.5 8.83522 5.5 8.17218C5.5 7.50914 5.76339 6.87325 6.23223 6.40441C6.70107 5.93557 7.33696 5.67218 8 5.67218ZM3 5.67218C2.33696 5.67218 1.70107 5.40879 1.23223 4.93995C0.763392 4.47111 0.5 3.83522 0.5 3.17218C0.5 2.50914 0.763392 1.87325 1.23223 1.40441C1.70107 0.935572 2.33696 0.67218 3 0.67218M3 5.67218H5.5M3 5.67218C2.33696 5.67218 1.70107 5.93557 1.23223 6.40441C0.763392 6.87325 0.5 7.50914 0.5 8.17218C0.5 8.83522 0.763392 9.47111 1.23223 9.93995C1.70107 10.4088 2.33696 10.6722 3 10.6722M3 0.67218H5.5V5.67218M5.5 5.67218V10.6722M3 10.6722H5.5M3 10.6722C2.33696 10.6722 1.70107 10.9356 1.23223 11.4044C0.763392 11.8733 0.5 12.5091 0.5 13.1722C0.5 13.8352 0.763392 14.4711 1.23223 14.9399C1.70107 15.4088 2.33696 15.6722 3 15.6722H5.5V10.6722" stroke="#EEEEEE" stroke-linecap="round" stroke-linejoin="round"/>
</svg>
