<svg width="15" height="15" viewBox="0 0 15 15" fill="none" xmlns="http://www.w3.org/2000/svg">
<path d="M13.6364 0H1.36364C0.610227 0 0 0.610227 0 1.36364V13.6364C0 14.3898 0.610227 15 1.36364 15H13.6364C14.3898 15 15 14.3898 15 13.6364V1.36364C15 0.610227 14.3898 0 13.6364 0ZM7.5 11.1682C7.5 12.3798 6.75682 13.0589 5.52273 13.0589C4.30364 13.0589 3.52705 12.3464 3.52705 11.1941H4.84773C4.85114 11.6216 5.10614 11.8916 5.50023 11.8916C5.90523 11.8916 6.12273 11.6366 6.12273 11.1566V7.49864H7.5V11.1682ZM11.237 13.0589C9.86727 13.0589 9.00545 12.4139 8.98227 11.3707H10.2955C10.3289 11.7648 10.7223 12.0157 11.293 12.0157C11.807 12.0157 12.1602 11.7682 12.1602 11.4116C12.1602 11.1116 11.9236 10.95 11.3045 10.8266L10.592 10.6841C9.60136 10.4966 9.09136 9.95659 9.09136 9.105C9.09136 8.04682 9.93955 7.35273 11.2445 7.35273C12.5127 7.35273 13.3902 8.03932 13.4127 9.04091H12.1411C12.1111 8.65841 11.747 8.39182 11.2623 8.39182C10.7789 8.39182 10.4605 8.62091 10.4605 8.98091C10.4605 9.2775 10.7005 9.45 11.2705 9.5625L11.9673 9.6975C13.037 9.90409 13.517 10.3875 13.517 11.2466C13.5177 12.3764 12.6552 13.0589 11.237 13.0589Z" fill="#EEEEEE"/>
</svg>
