<svg width="12" height="17" viewBox="0 0 12 17" fill="none" xmlns="http://www.w3.org/2000/svg">
<path d="M3.69258 12.6889C3.69258 12.6889 3.09818 13.0351 4.11458 13.1512C5.34612 13.293 5.97597 13.2731 7.33183 13.0147C7.33183 13.0147 7.68779 13.2401 8.18652 13.4348C5.1441 14.7377 1.30186 13.3566 3.69209 12.6889H3.69258ZM3.32011 10.9892C3.32011 10.9892 2.65238 11.4821 3.66927 11.5856C4.98773 11.722 6.02405 11.7351 7.82231 11.3889C7.82231 11.3889 8.07046 11.6395 8.46284 11.7779C4.78523 12.8525 0.687066 11.8614 3.32011 10.9892ZM6.45382 8.10365C7.20217 8.96611 6.25618 9.74262 6.25618 9.74262C6.25618 9.74262 8.15836 8.75827 7.28569 7.52964C6.46936 6.38115 5.84194 5.81249 9.23061 3.84669C9.23061 3.84669 3.91159 5.17486 6.45334 8.10414L6.45382 8.10365ZM10.4757 13.9486C10.4757 13.9486 10.9162 14.3099 9.99255 14.5911C8.23703 15.1219 2.6854 15.2811 1.14258 14.611C0.58897 14.3706 1.6282 14.0345 1.95454 13.9661C2.29593 13.8903 2.49066 13.9059 2.49066 13.9059C1.87344 13.4707 -1.49532 14.7581 0.778848 15.1272C6.98315 16.1339 12.0866 14.6746 10.4757 13.9486ZM3.97812 9.22641C3.97812 9.22641 1.15326 9.89657 2.97629 10.1394C3.74794 10.2428 5.28348 10.2205 6.71509 10.0991C7.88301 10 9.05724 9.79021 9.05724 9.79021C9.05724 9.79021 8.64495 9.96698 8.34629 10.1724C5.47773 10.9261 -0.0632199 10.5745 1.53253 9.80333C2.88062 9.15308 3.97812 9.22641 3.97812 9.22641ZM9.04413 12.059C11.9579 10.5415 10.6098 9.08703 9.67155 9.28468C9.44088 9.32985 9.33745 9.37355 9.33745 9.37355C9.33745 9.37355 9.42097 9.23903 9.5856 9.18124C11.447 8.52614 12.8786 11.1106 8.98586 12.1353C8.98586 12.1329 9.03199 12.0945 9.04413 12.059ZM7.28618 0.67218C7.28618 0.67218 8.90039 2.2859 5.75356 4.76937C3.23221 6.76236 5.17907 7.89823 5.75356 9.19581C4.28164 7.86764 3.20162 6.69972 3.92519 5.61192C4.98967 4.01083 7.93643 3.23675 7.28618 0.67218ZM4.26367 16.164C7.06134 16.3408 11.3581 16.063 11.4625 14.7402C11.4625 14.7402 11.2649 15.2408 9.14757 15.64C6.76025 16.0902 3.8135 16.0368 2.06575 15.7488C2.06575 15.7488 2.42511 16.0445 4.26318 16.164H4.26367Z" fill="#EEEEEE"/>
</svg>
