<svg width="20" height="21" viewBox="0 0 20 21" fill="none" xmlns="http://www.w3.org/2000/svg">
<path d="M19 10C19.0058 12.2053 18.2017 14.336 16.7403 15.9876C15.2789 17.6392 13.2619 18.6967 11.0723 18.9595C8.88273 19.2222 6.67285 18.6719 4.8622 17.413C3.05154 16.154 1.76614 14.2741 1.25 12.13C2.53605 13.3377 4.23583 14.0068 6 14C7.53084 14.001 9.01978 13.5001 10.2388 12.5741C11.4578 11.6481 12.3396 10.348 12.7492 8.87297C13.1588 7.39795 13.0736 5.82933 12.5066 4.40736C11.9396 2.9854 10.9221 1.7885 9.61 1H10C12.3869 1 14.6761 1.94821 16.364 3.63604C18.0518 5.32387 19 7.61305 19 10Z" fill="white" stroke="white" stroke-width="2" stroke-linecap="round" stroke-linejoin="round"/>
<path d="M2.5 7L2.83677 8.03647H3.92658L3.04491 8.67705L3.38168 9.71353L2.5 9.07295L1.61832 9.71353L1.95509 8.67705L1.07342 8.03647H2.16323L2.5 7Z" fill="white"/>
<path d="M4.5 1L4.83677 2.03647H5.92658L5.04491 2.67705L5.38168 3.71353L4.5 3.07295L3.61832 3.71353L3.95509 2.67705L3.07342 2.03647H4.16323L4.5 1Z" fill="white"/>
<path d="M7.5 4L8.06129 5.72746H9.87764L8.40818 6.79508L8.96946 8.52254L7.5 7.45492L6.03054 8.52254L6.59182 6.79508L5.12236 5.72746H6.93871L7.5 4Z" fill="white"/>
</svg>
