<svg width="354" height="299" viewBox="0 0 354 299" fill="none" xmlns="http://www.w3.org/2000/svg">
<path d="M277.994 151.816C319.917 151.816 353.902 117.831 353.902 75.9081C353.902 33.9852 319.917 0 277.994 0C236.071 0 202.086 33.9852 202.086 75.9081C202.086 117.831 236.071 151.816 277.994 151.816Z" fill="#E5F1FF"/>
<path d="M113.78 267.3C131.106 249.974 131.106 221.883 113.78 204.557C96.4539 187.231 68.3627 187.231 51.0366 204.557C33.7105 221.883 33.7105 249.974 51.0366 267.3C68.3627 284.627 96.4539 284.627 113.78 267.3Z" fill="#E5F1FF"/>
<path d="M81.8192 25.3057C59.4183 25.3057 41.2595 43.4654 41.2595 65.8663C41.2595 88.2673 59.4192 106.427 81.8192 106.427C104.22 106.427 122.38 88.2673 122.38 65.8663C122.379 43.4654 104.219 25.3057 81.8192 25.3057ZM81.8192 91.7982C67.4974 91.7982 55.8874 80.1882 55.8874 65.8663C55.8874 51.5445 67.4974 39.9345 81.8192 39.9345C96.1411 39.9345 107.751 51.5445 107.751 65.8663C107.751 80.1882 96.1402 91.7982 81.8192 91.7982Z" fill="#A9CCEA"/>
<path d="M235.057 284.625C235.057 287.196 232.973 289.28 230.403 289.28H112.711C110.141 289.28 108.057 287.196 108.057 284.625C108.057 282.055 110.141 279.971 112.711 279.971H154.491L160.253 269.332H170.227H172.887H182.86L188.623 279.971H230.403C232.973 279.971 235.057 282.055 235.057 284.625Z" fill="#0F3157"/>
<path d="M180.227 259.691H160.944V265.343H180.227V259.691Z" fill="#FF4D6B"/>
<path d="M180.227 250.382H160.944V256.034H180.227V250.382Z" fill="#FF4D6B"/>
<path d="M324.115 231.255C320.761 232.543 317.118 233.248 313.311 233.248C296.658 233.248 283.157 219.748 283.157 203.094C283.157 186.439 296.657 172.939 313.311 172.939C329.965 172.939 343.465 186.439 343.465 203.094C343.465 207.556 342.496 211.792 340.757 215.602" stroke="#FF4D6B" stroke-width="1.1276" stroke-miterlimit="10" stroke-linecap="round" stroke-linejoin="round"/>
<path d="M238.972 61.5278H234.158C233.159 57.2504 231.476 53.2374 229.223 49.6118L232.627 46.2082C234.094 44.7409 234.094 42.3615 232.627 40.8942L225.065 33.3316C223.597 31.8643 221.218 31.8643 219.75 33.3316L216.347 36.7343C212.722 34.4815 208.709 32.7992 204.432 31.8006V26.9862C204.432 24.9112 202.749 23.2289 200.674 23.2289H189.98C187.905 23.2289 186.222 24.9112 186.222 26.9862V31.8006C181.945 32.7992 177.932 34.4824 174.306 36.7343L170.903 33.3316C169.436 31.8643 167.056 31.8643 165.589 33.3316L158.027 40.8942C156.56 42.3615 156.56 44.7409 158.027 46.2082L161.431 49.6118C159.178 53.2365 157.496 57.2495 156.496 61.5278H151.682C149.607 61.5278 147.924 63.2102 147.924 65.2852V75.9797C147.924 78.0548 149.607 79.7371 151.682 79.7371H156.496C157.495 84.0146 159.178 88.0276 161.43 91.6531L158.027 95.0567C156.56 96.5241 156.56 98.9034 158.027 100.371L165.589 107.933C167.056 109.401 169.436 109.401 170.903 107.933L174.306 104.531C177.931 106.783 181.944 108.466 186.222 109.465V114.28C186.222 116.355 187.905 118.037 189.98 118.037H200.674C202.749 118.037 204.432 116.355 204.432 114.28V109.465C208.709 108.466 212.722 106.783 216.348 104.531L219.751 107.933C221.219 109.401 223.598 109.401 225.065 107.933L232.628 100.371C234.095 98.9034 234.095 96.5241 232.628 95.0567L229.224 91.6531C231.477 88.0284 233.16 84.0154 234.159 79.7371H238.973C241.048 79.7371 242.731 78.0548 242.731 75.9797V65.2852C242.73 63.2093 241.048 61.5278 238.972 61.5278ZM195.328 89.709C184.792 89.709 176.251 81.1682 176.251 70.632C176.251 60.0967 184.792 51.556 195.328 51.556C205.863 51.556 214.405 60.0967 214.405 70.632C214.405 81.1682 205.864 89.709 195.328 89.709Z" fill="#289DF2"/>
<path d="M39.0809 247.841C33.4793 247.841 28.9383 243.3 28.9383 237.698V78.9623C28.9383 73.3599 33.4793 68.8188 39.0818 68.8188H304.033C309.635 68.8188 314.176 73.3599 314.176 78.9614V237.697C314.176 243.299 309.635 247.841 304.033 247.841H39.0809V247.841Z" fill="#0F3775"/>
<path d="M79.1595 90.9668H49.7365V97.4502H79.1595V90.9668Z" fill="#284D89"/>
<path d="M114.566 90.9668H85.1432V97.4502H114.566V90.9668Z" fill="#284D89"/>
<path d="M204.331 90.9668H174.908V97.4502H204.331V90.9668Z" fill="#284D89"/>
<path d="M294.096 90.9668H264.673V97.4502H294.096V90.9668Z" fill="#284D89"/>
<path d="M171.167 90.9668H118.555V97.4502H171.167V90.9668Z" fill="#FF4D6B"/>
<path d="M260.433 90.9668H207.821V97.4502H260.433V90.9668Z" fill="#2889DB"/>
<path d="M55.0559 85.8137H49.9028V88.9722H55.0559V85.8137Z" fill="#2889DB"/>
<path d="M103.678 102.77H49.9028V105.928H103.678V102.77Z" fill="white"/>
<path d="M65.861 108.338H49.9028V111.497H65.861V108.338Z" fill="white"/>
<path d="M106.836 225.115H56.9673C53.2489 225.115 50.2354 222.101 50.2354 218.383V128.119C50.2354 124.401 53.2497 121.388 56.9673 121.388H106.836C110.555 121.388 113.568 124.402 113.568 128.119V218.383C113.568 222.101 110.555 225.115 106.836 225.115Z" fill="#284D89"/>
<path d="M79.4089 136.597H58.2145V139.839H79.4089V136.597Z" fill="white"/>
<path d="M79.4089 143.828H58.2145V147.07H79.4089V143.828Z" fill="white"/>
<path d="M79.4089 151.059H58.2145V154.301H79.4089V151.059Z" fill="white"/>
<path d="M71.1804 181.23H58.2145V184.472H71.1804V181.23Z" fill="white"/>
<path d="M71.1804 188.461H58.2145V191.703H71.1804V188.461Z" fill="white"/>
<path d="M93.4548 188.461H80.4889V191.703H93.4548V188.461Z" fill="white"/>
<path d="M66.3599 173.002H58.2145V176.244H66.3599V173.002Z" fill="white"/>
<path d="M97.444 173.002H93.1223V176.244H97.444V173.002Z" fill="white"/>
<path d="M91.4603 173.002H69.185V176.244H91.4603V173.002Z" fill="#FF4D6B"/>
<path d="M61.3315 160.784H58.2145V164.026H61.3315V160.784Z" fill="#2889DB"/>
<path d="M61.3315 166.518H58.2145V169.76H61.3315V166.518Z" fill="#FF4D6B"/>
<path d="M75.5021 192.368H74.3381L77.1225 188.212H78.2865L75.5021 192.368Z" fill="white"/>
<path d="M106.339 197.936H58.2145V200.679H106.339V197.936Z" fill="#282E5C"/>
<path d="M106.339 204.17H58.2145V206.913H106.339V204.17Z" fill="#282E5C"/>
<path d="M337.814 164.274H205.494C202.189 164.274 199.51 161.595 199.51 158.29V122.384C199.51 119.079 202.189 116.4 205.494 116.4H337.814C341.119 116.4 343.799 119.079 343.799 122.384V158.29C343.798 161.595 341.119 164.274 337.814 164.274Z" fill="#289DF2"/>
<path d="M242.397 147.319C242.397 147.319 249.711 129.367 270.656 133.688C291.601 138.01 302.24 161.615 329.17 142.333" stroke="white" stroke-width="1.1276" stroke-miterlimit="10"/>
<path d="M310.219 148.316H307.227V151.308H310.219V148.316Z" fill="#289DF2" stroke="white" stroke-width="1.1276" stroke-miterlimit="10"/>
<path d="M246.055 132.857H283.955" stroke="white" stroke-width="0.5638" stroke-miterlimit="10"/>
<path d="M289.773 150.644H327.674" stroke="white" stroke-width="0.5638" stroke-miterlimit="10"/>
<path d="M265.005 131.361H262.013V134.353H265.005V131.361Z" fill="#289DF2" stroke="white" stroke-width="1.1276" stroke-miterlimit="10"/>
<path d="M224.777 176.576H196.185C193.798 176.576 191.864 174.641 191.864 172.254V129.367C191.864 126.979 193.799 125.045 196.185 125.045H224.777C227.164 125.045 229.099 126.98 229.099 129.367V172.254C229.099 174.641 227.164 176.576 224.777 176.576Z" fill="#284D89"/>
<path d="M218.876 132.359H197.681V135.281H218.876V132.359Z" fill="white"/>
<path d="M218.876 138.877H197.681V141.799H218.876V138.877Z" fill="white"/>
<path d="M205.66 145.396H197.681V148.318H205.66V145.396Z" fill="white"/>
<path d="M211.479 152.139H197.681V155.061H211.479V152.139Z" fill="#289DF2"/>
<path d="M206.99 158.658H197.681V161.58H206.99V158.658Z" fill="#289DF2"/>
<path d="M206.99 165.176H197.681V168.098H206.99V165.176Z" fill="white"/>
<path d="M320.525 109.917H335.487" stroke="#284D89" stroke-width="2.2552" stroke-miterlimit="10" stroke-linecap="round" stroke-linejoin="round"/>
<path d="M286.911 194.333L281.747 198.375L274.338 199.722C274.338 199.722 267.379 199.272 266.705 199.272C266.032 199.272 261.318 195.456 261.318 195.456L252.562 192.313L246.5 194.558L239.317 192.986L228.541 192.312L218.214 196.354L209.683 197.701L202.05 200.17L193.519 200.844L184.315 193.66L175.784 192.089L167.028 197.028L160.069 199.272L152.167 199.048L142.21 205.109H136.272L126.244 208.626" stroke="#FF5C66" stroke-width="1.0152" stroke-miterlimit="10"/>
<path d="M126.395 208.776H287.135" stroke="#F7F7F7" stroke-width="0.2538" stroke-miterlimit="10"/>
<path d="M126.47 206.755H124.824V210.797H126.47V206.755Z" fill="#F7F7F7"/>
<path d="M287.809 206.755H286.162V210.797H287.809V206.755Z" fill="#F7F7F7"/>
<path d="M286.985 208.776V195.231" stroke="#F7F7F7" stroke-width="0.2538" stroke-miterlimit="10"/>
<path d="M287.883 194.558C287.883 195.26 287.313 195.83 286.611 195.83C285.909 195.83 285.339 195.26 285.339 194.558C285.339 193.856 285.909 193.286 286.611 193.286C287.313 193.286 287.883 193.856 287.883 194.558Z" fill="#F7F7F7"/>
<path d="M132.699 216.047C132.699 216.67 132.587 217.208 132.362 217.662C132.137 218.116 131.828 218.465 131.436 218.712C131.044 218.958 130.596 219.081 130.092 219.081C129.588 219.081 129.14 218.958 128.748 218.712C128.356 218.465 128.047 218.116 127.822 217.662C127.597 217.208 127.485 216.67 127.485 216.047C127.485 215.424 127.597 214.885 127.822 214.431C128.047 213.978 128.356 213.628 128.748 213.382C129.14 213.135 129.588 213.012 130.092 213.012C130.596 213.012 131.044 213.135 131.436 213.382C131.828 213.628 132.137 213.978 132.362 214.431C132.587 214.885 132.699 215.424 132.699 216.047ZM132.007 216.047C132.007 215.535 131.921 215.103 131.75 214.752C131.581 214.4 131.351 214.133 131.061 213.953C130.773 213.772 130.45 213.681 130.092 213.681C129.734 213.681 129.41 213.772 129.12 213.953C128.831 214.133 128.602 214.4 128.431 214.752C128.261 215.103 128.177 215.535 128.177 216.047C128.177 216.558 128.261 216.99 128.431 217.342C128.602 217.693 128.831 217.96 129.12 218.14C129.41 218.321 129.734 218.412 130.092 218.412C130.45 218.412 130.773 218.321 131.061 218.14C131.351 217.96 131.581 217.693 131.75 217.342C131.921 216.99 132.007 216.558 132.007 216.047ZM133.902 219V213.093H134.583V215.274H134.64C134.69 215.197 134.76 215.099 134.848 214.979C134.938 214.858 135.067 214.751 135.234 214.656C135.404 214.56 135.633 214.512 135.921 214.512C136.294 214.512 136.623 214.605 136.907 214.792C137.192 214.978 137.414 215.243 137.574 215.585C137.733 215.927 137.813 216.331 137.813 216.796C137.813 217.266 137.733 217.672 137.574 218.016C137.414 218.359 137.193 218.624 136.91 218.813C136.628 218.999 136.302 219.092 135.932 219.092C135.648 219.092 135.42 219.045 135.249 218.951C135.078 218.855 134.946 218.746 134.854 218.625C134.761 218.502 134.69 218.4 134.64 218.319H134.56V219H133.902ZM134.571 216.785C134.571 217.119 134.62 217.415 134.718 217.67C134.816 217.924 134.96 218.123 135.148 218.267C135.336 218.41 135.567 218.481 135.84 218.481C136.125 218.481 136.362 218.406 136.553 218.256C136.745 218.104 136.889 217.9 136.985 217.644C137.083 217.387 137.132 217.1 137.132 216.785C137.132 216.473 137.084 216.193 136.988 215.943C136.894 215.691 136.751 215.492 136.558 215.346C136.368 215.198 136.129 215.124 135.84 215.124C135.563 215.124 135.331 215.194 135.142 215.334C134.954 215.473 134.811 215.667 134.715 215.917C134.619 216.165 134.571 216.454 134.571 216.785ZM138.854 214.57H139.535V219.323C139.535 219.596 139.488 219.833 139.394 220.033C139.301 220.233 139.161 220.387 138.972 220.497C138.786 220.607 138.55 220.661 138.266 220.661C138.243 220.661 138.22 220.661 138.197 220.661C138.174 220.661 138.15 220.661 138.127 220.661V220.027C138.15 220.027 138.172 220.027 138.191 220.027C138.21 220.027 138.231 220.027 138.254 220.027C138.462 220.027 138.614 219.965 138.71 219.842C138.806 219.721 138.854 219.548 138.854 219.323V214.57ZM139.189 213.831C139.056 213.831 138.942 213.786 138.846 213.696C138.751 213.606 138.704 213.497 138.704 213.37C138.704 213.243 138.751 213.134 138.846 213.044C138.942 212.954 139.056 212.909 139.189 212.909C139.321 212.909 139.435 212.954 139.529 213.044C139.625 213.134 139.673 213.243 139.673 213.37C139.673 213.497 139.625 213.606 139.529 213.696C139.435 213.786 139.321 213.831 139.189 213.831ZM142.639 219.092C142.212 219.092 141.844 218.998 141.534 218.81C141.227 218.619 140.989 218.354 140.822 218.014C140.657 217.671 140.574 217.273 140.574 216.82C140.574 216.366 140.657 215.966 140.822 215.62C140.989 215.272 141.222 215.001 141.52 214.806C141.82 214.61 142.17 214.512 142.57 214.512C142.801 214.512 143.028 214.551 143.253 214.628C143.478 214.704 143.683 214.829 143.868 215.002C144.052 215.174 144.199 215.4 144.309 215.683C144.419 215.966 144.473 216.314 144.473 216.727V217.016H141.058V216.427H143.781C143.781 216.177 143.731 215.954 143.631 215.758C143.533 215.562 143.393 215.407 143.21 215.294C143.029 215.18 142.816 215.124 142.57 215.124C142.299 215.124 142.064 215.191 141.866 215.325C141.67 215.458 141.519 215.631 141.413 215.845C141.307 216.058 141.255 216.287 141.255 216.531V216.923C141.255 217.258 141.312 217.542 141.428 217.774C141.545 218.005 141.707 218.181 141.915 218.302C142.123 218.421 142.364 218.481 142.639 218.481C142.818 218.481 142.979 218.456 143.124 218.406C143.27 218.354 143.396 218.277 143.501 218.175C143.607 218.071 143.689 217.942 143.747 217.789L144.404 217.973C144.335 218.196 144.219 218.392 144.055 218.562C143.892 218.729 143.69 218.86 143.45 218.954C143.209 219.046 142.939 219.092 142.639 219.092ZM147.309 219.092C146.893 219.092 146.536 218.994 146.236 218.798C145.936 218.602 145.705 218.332 145.543 217.988C145.382 217.643 145.301 217.25 145.301 216.808C145.301 216.358 145.384 215.961 145.549 215.617C145.717 215.271 145.949 215.001 146.247 214.806C146.547 214.61 146.897 214.512 147.297 214.512C147.609 214.512 147.889 214.57 148.139 214.685C148.389 214.801 148.594 214.962 148.754 215.17C148.913 215.377 149.012 215.62 149.051 215.897H148.37C148.318 215.695 148.203 215.516 148.024 215.36C147.847 215.202 147.609 215.124 147.309 215.124C147.043 215.124 146.811 215.193 146.611 215.331C146.413 215.468 146.258 215.661 146.146 215.911C146.037 216.159 145.982 216.45 145.982 216.785C145.982 217.127 146.036 217.425 146.143 217.679C146.253 217.933 146.407 218.13 146.605 218.27C146.805 218.411 147.039 218.481 147.309 218.481C147.486 218.481 147.646 218.45 147.79 218.389C147.934 218.327 148.057 218.239 148.157 218.123C148.257 218.008 148.328 217.869 148.37 217.708H149.051C149.012 217.969 148.917 218.205 148.765 218.415C148.615 218.622 148.416 218.788 148.168 218.911C147.922 219.032 147.635 219.092 147.309 219.092ZM151.972 214.57V215.147H149.677V214.57H151.972ZM150.346 213.508H151.026V217.731C151.026 217.923 151.054 218.067 151.11 218.164C151.168 218.258 151.241 218.321 151.329 218.354C151.42 218.385 151.515 218.4 151.615 218.4C151.69 218.4 151.751 218.396 151.799 218.389C151.847 218.379 151.886 218.371 151.915 218.365L152.053 218.977C152.007 218.994 151.943 219.012 151.86 219.029C151.777 219.048 151.672 219.058 151.546 219.058C151.353 219.058 151.165 219.016 150.98 218.934C150.798 218.851 150.646 218.725 150.525 218.556C150.405 218.387 150.346 218.173 150.346 217.916V213.508ZM152.996 219V214.57H153.677V219H152.996ZM153.342 213.831C153.21 213.831 153.095 213.786 152.999 213.696C152.905 213.606 152.858 213.497 152.858 213.37C152.858 213.243 152.905 213.134 152.999 213.044C153.095 212.954 153.21 212.909 153.342 212.909C153.475 212.909 153.589 212.954 153.683 213.044C153.779 213.134 153.827 213.243 153.827 213.37C153.827 213.497 153.779 213.606 153.683 213.696C153.589 213.786 153.475 213.831 153.342 213.831ZM156.897 214.57V215.147H154.508V214.57H156.897ZM155.224 219V213.958C155.224 213.705 155.283 213.493 155.402 213.324C155.522 213.155 155.676 213.028 155.867 212.943C156.057 212.859 156.258 212.816 156.47 212.816C156.637 212.816 156.773 212.83 156.879 212.857C156.985 212.884 157.064 212.908 157.116 212.932L156.92 213.52C156.885 213.508 156.837 213.494 156.775 213.477C156.716 213.459 156.637 213.451 156.539 213.451C156.314 213.451 156.151 213.507 156.051 213.621C155.953 213.734 155.904 213.901 155.904 214.12V219H155.224Z" fill="#F7F7F7"/>
<path d="M263 214.61H160V216.41H263V214.61Z" fill="#28385E"/>
<path d="M223 214.61H160V216.41H223V214.61Z" fill="#FF4D6B"/>
<path d="M213 218.05H160V219.85H213V218.05Z" fill="#28385E"/>
<path d="M132.344 223.406H138.405L139.192 221.722H126.956V224.529H131.221L132.344 223.406Z" fill="#FF4D6B"/>
<path d="M144.907 221.703H144.233V222.377H144.907V221.703Z" fill="#F7F7F7"/>
<path d="M149.087 221.703H148.414V222.377H149.087V221.703Z" fill="#F7F7F7"/>
<path d="M153.269 221.703H152.595V222.377H153.269V221.703Z" fill="#F7F7F7"/>
<path d="M281.457 191.081C281.119 191.081 280.814 191.013 280.543 190.879C280.272 190.744 280.055 190.56 279.891 190.325C279.728 190.091 279.638 189.823 279.623 189.523H280.315C280.342 189.791 280.463 190.012 280.679 190.187C280.896 190.36 281.155 190.446 281.457 190.446C281.7 190.446 281.915 190.39 282.103 190.276C282.294 190.163 282.443 190.007 282.55 189.809C282.66 189.609 282.715 189.383 282.715 189.131C282.715 188.873 282.658 188.644 282.545 188.442C282.433 188.238 282.279 188.077 282.083 187.96C281.887 187.843 281.663 187.783 281.411 187.781C281.23 187.779 281.045 187.807 280.855 187.865C280.664 187.921 280.507 187.993 280.384 188.081L279.715 188L280.073 185.093H283.142V185.728H280.673L280.465 187.47H280.5C280.621 187.374 280.773 187.294 280.956 187.23C281.138 187.167 281.329 187.135 281.527 187.135C281.888 187.135 282.21 187.222 282.493 187.395C282.777 187.566 283 187.8 283.162 188.098C283.325 188.396 283.407 188.737 283.407 189.119C283.407 189.496 283.323 189.833 283.153 190.129C282.986 190.423 282.755 190.656 282.461 190.827C282.167 190.996 281.832 191.081 281.457 191.081ZM286.48 191.081C286.045 191.081 285.675 190.963 285.369 190.726C285.063 190.488 284.83 190.142 284.668 189.691C284.507 189.237 284.426 188.689 284.426 188.047C284.426 187.408 284.507 186.863 284.668 186.411C284.832 185.957 285.066 185.611 285.372 185.373C285.68 185.133 286.049 185.012 286.48 185.012C286.91 185.012 287.278 185.133 287.584 185.373C287.892 185.611 288.126 185.957 288.288 186.411C288.451 186.863 288.533 187.408 288.533 188.047C288.533 188.689 288.452 189.237 288.291 189.691C288.129 190.142 287.896 190.488 287.59 190.726C287.284 190.963 286.914 191.081 286.48 191.081ZM286.48 190.446C286.91 190.446 287.245 190.239 287.483 189.823C287.722 189.408 287.841 188.816 287.841 188.047C287.841 187.535 287.786 187.1 287.676 186.74C287.569 186.38 287.413 186.106 287.209 185.918C287.007 185.73 286.764 185.635 286.48 185.635C286.053 185.635 285.719 185.846 285.479 186.267C285.238 186.686 285.118 187.279 285.118 188.047C285.118 188.558 285.172 188.993 285.28 189.35C285.387 189.708 285.542 189.98 285.744 190.166C285.948 190.353 286.193 190.446 286.48 190.446ZM291.556 191.081C291.121 191.081 290.751 190.963 290.445 190.726C290.14 190.488 289.906 190.142 289.744 189.691C289.583 189.237 289.502 188.689 289.502 188.047C289.502 187.408 289.583 186.863 289.744 186.411C289.908 185.957 290.143 185.611 290.448 185.373C290.756 185.133 291.125 185.012 291.556 185.012C291.986 185.012 292.355 185.133 292.66 185.373C292.968 185.611 293.203 185.957 293.364 186.411C293.528 186.863 293.609 187.408 293.609 188.047C293.609 188.689 293.529 189.237 293.367 189.691C293.206 190.142 292.972 190.488 292.666 190.726C292.36 190.963 291.99 191.081 291.556 191.081ZM291.556 190.446C291.986 190.446 292.321 190.239 292.56 189.823C292.798 189.408 292.917 188.816 292.917 188.047C292.917 187.535 292.862 187.1 292.753 186.74C292.645 186.38 292.489 186.106 292.285 185.918C292.084 185.73 291.84 185.635 291.556 185.635C291.129 185.635 290.795 185.846 290.555 186.267C290.315 186.686 290.194 187.279 290.194 188.047C290.194 188.558 290.248 188.993 290.356 189.35C290.464 189.708 290.618 189.98 290.82 190.166C291.024 190.353 291.269 190.446 291.556 190.446Z" fill="#F7F7F7"/>
<path d="M270.672 220.001H269.175L266.78 214.613H268.277L270.672 220.001Z" fill="#28385E"/>
<path d="M274.563 220.001H273.066L270.672 214.613H272.169L274.563 220.001Z" fill="#28385E"/>
<path d="M278.454 220.001H276.957L274.563 214.613H276.06L278.454 220.001Z" fill="#28385E"/>
<path d="M282.346 220.001H280.849L278.454 214.613H279.951L282.346 220.001Z" fill="#28385E"/>
<path d="M286.162 220.001H284.665L282.271 214.613H283.767L286.162 220.001Z" fill="#28385E"/>
<path d="M279.665 34.4983H255.33V38.8571H279.665V34.4983Z" fill="#A9CCEA"/>
<path d="M292.022 42.2978H255.33V46.6558H292.022V42.2978Z" fill="#A9CCEA"/>
<path d="M300.578 50.0974H255.33V54.4562H300.578V50.0974Z" fill="#A9CCEA"/>
<path d="M272.63 57.8969H255.33V62.2558H272.63V57.8969Z" fill="#A9CCEA"/>
<path d="M24.3353 87.0272H0V91.386H24.3353V87.0272Z" fill="#2889DB"/>
<path d="M36.6927 94.8267H0V99.1847H36.6927V94.8267Z" fill="#A9CCEA"/>
<path d="M45.2485 102.625H0V106.984H45.2485V102.625Z" fill="#A9CCEA"/>
<path d="M17.3009 110.426H0V114.785H17.3009V110.426Z" fill="#A9CCEA"/>
<path d="M164.435 240.075H60.7079V253.54H164.435V240.075Z" stroke="#289DF2" stroke-width="1.1276" stroke-miterlimit="10"/>
<path d="M115.729 134.021H110.742V164.607H115.729V134.021Z" stroke="#289DF2" stroke-width="1.1276" stroke-miterlimit="10"/>
<path d="M316.027 220.058C325.398 218.547 331.77 209.725 330.258 200.353C328.747 190.982 319.925 184.61 310.554 186.121C301.183 187.632 294.812 196.454 296.323 205.826C297.834 215.197 306.656 221.569 316.027 220.058Z" fill="#FF4D6B"/>
<path d="M312.066 201.482L305.24 203.983L312.066 206.464V209.028L302.307 205.316V202.651L312.066 198.941V201.482Z" fill="#F9FBFC"/>
<path d="M314.296 198.94L324.055 202.65V205.315L314.296 209.027V206.463L321.123 203.982L314.296 201.481V198.94Z" fill="#F9FBFC"/>
<path d="M341.969 217.136C341.969 218.375 340.965 219.38 339.725 219.38C338.486 219.38 337.481 218.375 337.481 217.136C337.481 215.897 338.486 214.892 339.725 214.892C340.965 214.892 341.969 215.897 341.969 217.136Z" stroke="#FF4D6B" stroke-width="1.1276" stroke-miterlimit="10"/>
<path d="M136.509 54.5624H55.2222V63.0404H136.509V54.5624Z" stroke="#289DF2" stroke-width="1.1276" stroke-miterlimit="10"/>
<path d="M109.081 57.3052H58.7125V59.7986H109.081V57.3052Z" fill="#289DF2"/>
<path d="M183.884 120.722H124.374V123.715H183.884V120.722Z" fill="#284D89"/>
<path d="M151.345 120.722H124.374V123.715H151.345V120.722Z" fill="#2889DB"/>
<path d="M183.884 128.452H124.374V131.444H183.884V128.452Z" fill="#284D89"/>
<path d="M165.806 128.452H124.374V131.444H165.806V128.452Z" fill="#FF4D6B"/>
<path d="M183.884 136.182H124.374V139.174H183.884V136.182Z" fill="#284D89"/>
<path d="M136.508 136.182H124.374V139.174H136.508V136.182Z" fill="#1AE5FF"/>
<path d="M125.787 115.486H124.623V116.65H125.787V115.486Z" fill="#284D89"/>
<path d="M129.777 115.486H128.613V116.65H129.777V115.486Z" fill="#284D89"/>
<path d="M133.766 115.486H132.602V116.65H133.766V115.486Z" fill="#284D89"/>
<path d="M237.299 156.24H235.36V158.18H237.299V156.24Z" fill="white"/>
<path d="M243.95 156.24H242.01V158.18H243.95V156.24Z" fill="white"/>
<path d="M250.598 156.24H248.659V158.18H250.598V156.24Z" fill="white"/>
<path d="M266.989 79.1754H263.353V82.8116H266.989V79.1754Z" fill="white"/>
<path d="M279.456 79.1754H275.82V82.8116H279.456V79.1754Z" fill="white"/>
<path d="M291.923 79.1754H288.287V82.8116H291.923V79.1754Z" fill="white"/>
<path d="M215.458 229.447H211.822V233.083H215.458V229.447Z" fill="white"/>
<path d="M227.925 229.447H224.289V233.083H227.925V229.447Z" fill="white"/>
<path d="M240.392 229.447H236.756V233.083H240.392V229.447Z" fill="white"/>
<path d="M61.2059 128.756H59.267V130.696H61.2059V128.756Z" fill="white"/>
<path d="M67.8555 128.756H65.9158V130.696H67.8555V128.756Z" fill="white"/>
<path d="M74.5053 128.756H72.5656V130.696H74.5053V128.756Z" fill="white"/>
<path d="M331.165 126.374H298.916V129.533H331.165V126.374Z" fill="white"/>
<path d="M308.486 131.943H298.916V135.102H308.486V131.943Z" fill="#287DD1"/>
<path d="M38.7651 132.857H31.7838V125.875H25.3004V132.857H18.319V139.34H25.3004V146.322H31.7838V139.34H38.7651V132.857Z" fill="#1AE5FF"/>
<path d="M20.0826 152.306H15.8255V148.049H11.8727V152.306H7.61469V156.259H11.8727V160.516H15.8255V156.259H20.0826V152.306Z" fill="#2889DB"/>
<path d="M136.603 148.589C130.573 148.589 125.684 153.477 125.684 159.507C125.684 165.537 130.573 170.425 136.603 170.425C142.633 170.425 147.521 165.537 147.521 159.507C147.521 153.477 142.632 148.589 136.603 148.589ZM136.603 165.197C133.46 165.197 130.914 162.65 130.914 159.507C130.914 156.364 133.461 153.817 136.603 153.817C139.745 153.817 142.293 156.364 142.293 159.507C142.293 162.65 139.744 165.197 136.603 165.197Z" fill="#284D89"/>
<path d="M129.17 158.43C130.185 158.43 131.074 157.827 131.535 156.923C132.476 155.08 134.391 153.817 136.603 153.817C138.815 153.817 140.73 155.08 141.671 156.923C142.132 157.827 143.022 158.43 144.036 158.43C145.947 158.43 147.254 156.429 146.414 154.712C144.638 151.086 140.913 148.589 136.604 148.589C132.294 148.589 128.569 151.086 126.794 154.713C125.952 156.429 127.259 158.43 129.17 158.43Z" fill="#289DF2"/>
<path d="M154.94 159.507C154.94 165.537 159.829 170.425 165.859 170.425C171.889 170.425 176.777 165.537 176.777 159.507C176.777 153.476 171.888 148.589 165.859 148.589C159.829 148.589 154.94 153.477 154.94 159.507ZM171.549 159.507C171.549 162.649 169.001 165.196 165.859 165.196C162.716 165.196 160.168 162.649 160.168 159.507C160.168 156.364 162.716 153.817 165.859 153.817C169.001 153.817 171.549 156.364 171.549 159.507Z" fill="#284D89"/>
<path d="M164.783 166.939C164.783 165.925 164.18 165.036 163.276 164.574C161.432 163.634 160.169 161.718 160.169 159.507C160.169 157.295 161.432 155.38 163.276 154.439C164.18 153.978 164.783 153.088 164.783 152.074C164.783 150.163 162.781 148.856 161.064 149.696C157.438 151.471 154.94 155.197 154.94 159.507C154.94 163.816 157.438 167.542 161.064 169.317C162.78 170.157 164.783 168.851 164.783 166.939Z" fill="#FF4D6B"/>
<path d="M105.423 116.401H85.4758V164.275H105.423V116.401Z" stroke="#289DF2" stroke-width="1.1276" stroke-miterlimit="10"/>
<path d="M94.12 125.626H88.3018V127.346H94.12V125.626Z" fill="#1AE5FF"/>
<path d="M94.12 129.462H88.3018V131.182H94.12V129.462Z" fill="#1AE5FF"/>
<path d="M94.12 133.298H88.3018V135.018H94.12V133.298Z" fill="#1AE5FF"/>
<path d="M94.12 153.246H88.3018V154.966H94.12V153.246Z" fill="#1AE5FF"/>
<path d="M96.7797 138.925H88.3018V140.644H96.7797V138.925Z" fill="#1AE5FF"/>
<path d="M96.7797 142.761H88.3018V144.48H96.7797V142.761Z" fill="white"/>
<path d="M96.7797 146.597H88.3018V148.316H96.7797V146.597Z" fill="white"/>
<path d="M39.2631 176.244H13.9964V201.51H39.2631V176.244Z" fill="#289DF2"/>
<path d="M25.9655 182.227H0.69873V207.494H25.9655V182.227Z" stroke="#289DF2" stroke-width="1.1276" stroke-miterlimit="10"/>
<path d="M325.181 249.385H314.542V260.024H325.181V249.385Z" stroke="#289DF2" stroke-width="1.1276" stroke-miterlimit="10"/>
<path d="M186.876 232.595H195.853L200.84 237.582H252.704L260.683 229.603H288.61" stroke="white" stroke-width="1.1276" stroke-miterlimit="10"/>
<path d="M184.258 235.338C185.704 235.338 186.876 234.166 186.876 232.72C186.876 231.274 185.704 230.102 184.258 230.102C182.812 230.102 181.64 231.274 181.64 232.72C181.64 234.166 182.812 235.338 184.258 235.338Z" stroke="white" stroke-width="1.1276" stroke-miterlimit="10"/>
<path d="M291.31 232.096C292.756 232.096 293.929 230.924 293.929 229.478C293.929 228.032 292.756 226.86 291.31 226.86C289.864 226.86 288.692 228.032 288.692 229.478C288.692 230.924 289.864 232.096 291.31 232.096Z" stroke="white" stroke-width="1.1276" stroke-miterlimit="10"/>
<path d="M326.51 91.7982C326.51 93.6344 325.021 95.123 323.185 95.123C321.349 95.123 319.86 93.6344 319.86 91.7982C319.86 89.9619 321.349 88.4733 323.185 88.4733C325.021 88.4733 326.51 89.9619 326.51 91.7982Z" fill="#289DF2"/>
<path d="M19.3158 221.458C19.3158 223.295 17.8271 224.783 15.9909 224.783C14.1547 224.783 12.6661 223.295 12.6661 221.458C12.6661 219.622 14.1547 218.134 15.9909 218.134C17.828 218.134 19.3158 219.622 19.3158 221.458Z" fill="#FF4D6B"/>
<path d="M34.6097 233.759C34.6097 236.973 32.0049 239.577 28.7915 239.577C25.5781 239.577 22.9732 236.973 22.9732 233.759C22.9732 230.546 25.5781 227.941 28.7915 227.941C32.0049 227.941 34.6097 230.546 34.6097 233.759Z" fill="#FF4D6B"/>
<path d="M232.756 253.374H209.484V258.693H232.756V253.374Z" stroke="#289DF2" stroke-width="1.1276" stroke-miterlimit="10"/>
<path d="M260.516 263.348H209.484V268.667H260.516V263.348Z" stroke="#289DF2" stroke-width="1.1276" stroke-miterlimit="10"/>
<path d="M66.9162 258.469L61.2758 264.109" stroke="#289DF2" stroke-width="1.1276" stroke-miterlimit="10" stroke-linecap="round" stroke-linejoin="round"/>
<path d="M72.3391 258.469L66.6987 264.109" stroke="#289DF2" stroke-width="1.1276" stroke-miterlimit="10" stroke-linecap="round" stroke-linejoin="round"/>
<path d="M77.7629 258.469L72.1224 264.109" stroke="#289DF2" stroke-width="1.1276" stroke-miterlimit="10" stroke-linecap="round" stroke-linejoin="round"/>
<path d="M83.1858 258.469L77.5453 264.109" stroke="#289DF2" stroke-width="1.1276" stroke-miterlimit="10" stroke-linecap="round" stroke-linejoin="round"/>
<path d="M88.6096 258.469L82.9691 264.109" stroke="#289DF2" stroke-width="1.1276" stroke-miterlimit="10" stroke-linecap="round" stroke-linejoin="round"/>
</svg>
