<svg width="18" height="11" viewBox="0 0 18 11" fill="none" xmlns="http://www.w3.org/2000/svg">
<path d="M5.25881 4.25167H4.5495L4.16306 6.34946H4.79306C5.20875 6.34946 5.51925 6.26629 5.72456 6.09934C5.9265 5.93537 6.06431 5.65673 6.13462 5.26997C6.20438 4.89865 6.17231 4.63546 6.04406 4.481C5.91187 4.3295 5.65088 4.25167 5.25881 4.25167ZM9 0.67218C4.02806 0.67218 0 2.91256 0 5.67218C0 8.4318 4.02806 10.6722 9 10.6722C13.9719 10.6722 18 8.4318 18 5.67218C18 2.91256 13.9719 0.67218 9 0.67218ZM6.55369 6.57582C6.36019 6.77365 6.12337 6.92218 5.868 7.0113C5.616 7.09507 5.29425 7.14141 4.90444 7.14141H4.01625L3.77325 8.4722H2.73881L3.66188 3.4627H5.64806C6.246 3.4627 6.6825 3.62667 6.95756 3.95759C7.23038 4.28851 7.31531 4.7531 7.20337 5.3472C7.16287 5.58247 7.08356 5.80823 6.97556 6.01914C6.867 6.21935 6.72975 6.4059 6.55312 6.57582H6.55369ZM9.57431 7.14141L9.98156 4.92361C10.0283 4.6723 10.0108 4.50001 9.92812 4.40614C9.84937 4.31643 9.67612 4.27009 9.41287 4.27009H8.59556L8.0685 7.14141H7.04025L7.96275 2.12893H8.98819L8.74237 3.4627H9.65644C10.2341 3.4627 10.629 3.56786 10.8461 3.77817C11.0661 3.99205 11.1302 4.33485 11.0458 4.80894L10.6144 7.142L9.57431 7.14141ZM15.2691 5.3472C15.2286 5.58247 15.1521 5.80823 15.0413 6.01914C14.9355 6.21935 14.7954 6.4059 14.6222 6.57582C14.4259 6.77068 14.1919 6.92218 13.9337 7.0113C13.6817 7.09507 13.3594 7.14141 12.9701 7.14141H12.0853L11.8395 8.4722H10.8051L11.7281 3.4627H13.7143C14.3123 3.4627 14.7487 3.62667 15.0238 3.96115C15.2966 4.2891 15.381 4.7531 15.2691 5.3472ZM13.3245 4.25167H12.618L12.2316 6.34946H12.8588C13.2773 6.34946 13.5878 6.26629 13.7903 6.09934C13.995 5.93537 14.1328 5.65673 14.2037 5.26997C14.2734 4.89865 14.2414 4.63546 14.1092 4.481C13.9809 4.3295 13.7171 4.25167 13.3245 4.25167Z" fill="#EEEEEE"/>
</svg>
