<svg width="15" height="16" viewBox="0 0 15 16" fill="none" xmlns="http://www.w3.org/2000/svg">
<path d="M14.9317 9.75661C14.7656 9.57122 14.4819 9.62191 14.2626 9.66392C13.7354 9.75461 13.1618 9.85998 12.6512 9.64858C13.5631 8.26151 14.2806 6.74706 14.6819 5.14859C14.8279 4.54108 14.9407 3.91956 14.9192 3.29404C14.9033 2.94394 14.8528 2.57116 14.6307 2.28108C14.0813 1.58287 13.285 1.07405 12.4069 0.846653C11.3103 0.559902 10.134 0.64526 9.05537 0.966688C8.96612 0.984027 8.87825 0.945349 8.79107 0.934679C7.81203 0.743289 6.73266 0.818645 5.8837 1.36481C4.86453 1.01137 3.76925 0.797972 2.68435 0.907337C1.8776 0.988028 1.06738 1.34947 0.604502 2.01166C0.0191548 2.83791 -0.0604136 3.89288 0.032993 4.86117C0.22119 6.14688 0.546383 7.41259 0.960139 8.64695C1.23275 9.41651 1.53303 10.1921 2.01805 10.8643C2.26437 11.1944 2.59164 11.5271 3.03238 11.5791C3.424 11.6252 3.77825 11.3911 4.01834 11.1137C4.43348 10.6349 4.86038 10.1647 5.3032 9.70993C5.59241 9.84664 5.90653 9.92533 6.22758 9.94867C6.05391 10.1474 5.91069 10.4068 5.63393 10.4848C5.26099 10.6235 4.8244 10.6049 4.49575 10.8443C4.30617 10.975 4.29717 11.2597 4.46738 11.4098C4.77528 11.6979 5.22916 11.7599 5.63877 11.7932C6.21927 11.8359 6.806 11.6478 7.24674 11.2811C7.24398 12.1707 7.24813 13.0629 7.35191 13.9478C7.40381 14.466 7.63559 14.9822 8.04451 15.3309C8.42989 15.655 8.97926 15.7224 9.46844 15.6403C9.94862 15.5523 10.4419 15.4136 10.817 15.0975C11.2155 14.7588 11.3857 14.2473 11.4646 13.7565C11.6078 12.8769 11.7164 11.9933 11.8202 11.1097C12.8463 11.2764 14.0073 11.087 14.7739 10.3648C14.9379 10.2161 15.0936 9.95867 14.9317 9.75661ZM12.6546 1.39148C13.2704 1.61688 13.8177 2.00833 14.2287 2.50381C14.4245 2.74054 14.4494 3.05864 14.4619 3.34939C14.4709 4.04293 14.3256 4.7278 14.1408 5.39466C13.7873 6.62902 13.2504 7.81204 12.5758 8.9137C12.5093 9.0224 12.4367 9.12709 12.3564 9.22646C12.3502 9.19645 12.3377 9.1351 12.3315 9.10442C12.4152 8.89236 12.5377 8.6923 12.5854 8.4669C12.7543 7.83138 12.6117 7.17719 12.5509 6.53766C12.4872 5.93415 12.701 5.34665 12.6955 4.74447C12.7197 4.44972 12.5986 4.17097 12.481 3.90622C12.0555 2.98928 11.3788 2.17371 10.5104 1.61355C10.2987 1.4735 10.0621 1.37548 9.85106 1.23477C10.7741 1.04404 11.7642 1.06805 12.6539 1.39081L12.6546 1.39148ZM12.0921 6.539C12.1461 7.25321 12.3613 8.0201 12.0119 8.69763C11.5434 7.79937 10.938 6.94178 10.727 5.94149C10.6675 5.62339 10.6523 5.22061 10.9456 4.99921C11.3179 4.74447 11.8043 4.80182 12.2347 4.82716C12.216 5.4 12.0333 5.96216 12.0928 6.539H12.0921ZM3.71805 10.7702C3.54992 10.961 3.32298 11.1884 3.03653 11.1317C2.70165 11.0383 2.48855 10.7436 2.30173 10.4788C1.79734 9.70126 1.49359 8.823 1.21476 7.95141C0.902711 6.91978 0.639789 5.87147 0.488263 4.80582C0.412846 3.99491 0.459895 3.12532 0.890257 2.40311C1.21268 1.85628 1.81394 1.50751 2.44565 1.39348C3.45721 1.20609 4.49437 1.40482 5.4651 1.69024C5.03682 2.1437 4.70332 2.67786 4.5089 3.2627C4.2439 4.0436 4.12282 4.87451 4.18647 5.69542C4.22314 6.27359 4.20723 6.85442 4.12351 7.42793C4.01834 8.17681 4.33039 8.94704 4.90743 9.45252C4.51443 9.89532 4.09791 10.3174 3.71736 10.7709L3.71805 10.7702ZM4.60369 8.08745C4.50474 7.66333 4.63413 7.23654 4.64866 6.81174C4.68256 6.33094 4.64728 5.84946 4.63759 5.36865C5.10393 5.0779 5.64915 4.8505 6.21443 4.88184C6.5071 4.89385 6.77694 5.09324 6.84752 5.37132C7.10421 6.35628 7.18378 7.4526 6.69184 8.38554C6.52025 8.74565 6.38118 9.11842 6.26148 9.49654C5.44365 9.50454 4.74829 8.83768 4.60369 8.08745ZM7.14849 10.7242C6.6351 11.3944 5.60763 11.5225 4.86522 11.1577C5.23124 10.9943 5.65953 11.007 6.01309 10.8056C6.35489 10.6282 6.4905 10.2381 6.81016 10.0374C7.15818 9.99002 7.41211 10.4882 7.14919 10.7236L7.14849 10.7242ZM11.5517 9.94133C11.3566 10.2441 11.4251 10.6135 11.3774 10.9496C11.2653 11.8919 11.1553 12.8355 10.9962 13.7718C10.9207 14.2206 10.7229 14.6974 10.2835 14.9208C9.83307 15.1415 9.30999 15.2802 8.80352 15.2049C8.32265 15.1235 8.0196 14.6914 7.88329 14.2706C7.78366 13.9178 7.77328 13.5491 7.74491 13.1856C7.69648 12.3087 7.69579 11.4298 7.71931 10.5522C7.73938 10.2094 7.55672 9.85264 7.23913 9.68592C7.08553 9.60257 6.90564 9.59123 6.73405 9.57789C6.86897 8.93304 7.2765 8.37621 7.41626 7.73202C7.59754 6.93511 7.49721 6.10554 7.31178 5.31864C7.22114 4.92586 6.91117 4.57842 6.4988 4.48306C5.86364 4.32901 5.22294 4.56842 4.65489 4.82449C4.72684 3.9349 4.97385 3.02396 5.53914 2.30175C5.95497 1.76426 6.59982 1.40548 7.28826 1.31946C8.42436 1.18008 9.6172 1.48151 10.5201 2.16638C11.266 2.73454 11.8555 3.5041 12.1731 4.36969C11.6452 4.35169 11.0467 4.33101 10.6198 4.68445C10.2323 4.99921 10.1825 5.53604 10.2697 5.98684C10.4717 7.05915 11.1283 7.97075 11.6126 8.93504C11.7413 9.1611 11.9143 9.35849 12.079 9.56122C11.8832 9.65658 11.6645 9.74794 11.5531 9.942L11.5517 9.94133ZM12.9106 10.6996C12.5619 10.7396 12.1994 10.7516 11.8631 10.6402C11.8645 10.4568 11.8541 10.2394 12.007 10.1027C12.1281 10.0167 12.3004 9.93733 12.4401 10.0314C13.0352 10.3334 13.7271 10.1861 14.3602 10.1121C13.9734 10.4748 13.4379 10.6442 12.9106 10.6996ZM11.0826 5.13325C10.9588 5.23128 11.0923 5.37799 11.1989 5.424C11.457 5.57004 11.8105 5.36598 11.8188 5.0819C11.5857 4.9772 11.2937 4.98787 11.0826 5.13325ZM6.51471 5.58672C6.62473 5.5267 6.74097 5.36198 6.61366 5.26262C6.43238 5.12058 6.16876 5.09324 5.94805 5.15059C5.87678 5.17459 5.80206 5.22128 5.81659 5.3053C5.86779 5.59072 6.26425 5.7641 6.51402 5.58672H6.51471Z" fill="#EEEEEE"/>
</svg>
