<svg width="12" height="12" viewBox="0 0 12 12" fill="none" xmlns="http://www.w3.org/2000/svg">
<path d="M4.92857 2.42857H5.64286M3.85714 3.5V1.71429C3.85714 1.3198 4.17694 1 4.57143 1H7.42857C7.82307 1 8.14286 1.3198 8.14286 1.71429V5.28571C8.14286 5.6802 7.82307 6 7.42857 6H4.57143C4.17694 6 3.85714 6.3198 3.85714 6.71429V10.2857C3.85714 10.6802 4.17694 11 4.57143 11H7.42857C7.82307 11 8.14286 10.6802 8.14286 10.2857V8.5M6.35714 3.85714H1.71429C1.3198 3.85714 1 4.17694 1 4.57143V8.14286C1 8.53736 1.3198 8.85714 1.71429 8.85714H3.85714M5.64286 8.14286H10.2857C10.6802 8.14286 11 7.82307 11 7.42857V3.85714C11 3.46266 10.6802 3.14286 10.2857 3.14286H8.14286M6.35714 9.57143H7.07143" stroke="#EEEEEE" stroke-width="0.84211"/>
</svg>
