<svg width="20" height="20" viewBox="0 0 20 20" fill="none" xmlns="http://www.w3.org/2000/svg">
<path d="M14 10C14 10.7911 13.7654 11.5645 13.3259 12.2223C12.8864 12.8801 12.2616 13.3928 11.5307 13.6955C10.7998 13.9983 9.99556 14.0775 9.21964 13.9231C8.44371 13.7688 7.73098 13.3878 7.17157 12.8284C6.61216 12.269 6.2312 11.5563 6.07686 10.7804C5.92252 10.0044 6.00173 9.20017 6.30448 8.46927C6.60723 7.73836 7.11992 7.11365 7.77772 6.67412C8.43552 6.2346 9.20887 6 10 6C11.0609 6 12.0783 6.42143 12.8284 7.17157C13.5786 7.92172 14 8.93913 14 10ZM10 1V2V1ZM16.36 3.64L15.66 4.34L16.36 3.64ZM19 10H18H19ZM16.36 16.36L15.66 15.66L16.36 16.36ZM10 19V18V19ZM3.64 16.36L4.34 15.66L3.64 16.36ZM1 10H2H1ZM3.64 3.64L4.34 4.34L3.64 3.64Z" fill="white"/>
<path d="M10 1V2M16.36 3.64L15.66 4.34M19 10H18M16.36 16.36L15.66 15.66M10 19V18M3.64 16.36L4.34 15.66M1 10H2M3.64 3.64L4.34 4.34M14 10C14 10.7911 13.7654 11.5645 13.3259 12.2223C12.8864 12.8801 12.2616 13.3928 11.5307 13.6955C10.7998 13.9983 9.99556 14.0775 9.21964 13.9231C8.44371 13.7688 7.73098 13.3878 7.17157 12.8284C6.61216 12.269 6.2312 11.5563 6.07686 10.7804C5.92252 10.0044 6.00173 9.20017 6.30448 8.46927C6.60723 7.73836 7.11992 7.11365 7.77772 6.67412C8.43552 6.2346 9.20887 6 10 6C11.0609 6 12.0783 6.42143 12.8284 7.17157C13.5786 7.92172 14 8.93913 14 10Z" stroke="white" stroke-width="2" stroke-linecap="round" stroke-linejoin="round"/>
</svg>
