<svg width="28" height="24" viewBox="0 0 28 24" fill="none" xmlns="http://www.w3.org/2000/svg">
<path d="M10.075 0C10.499 0 10.877 0.267479 11.018 0.667409L17.6464 19.4623C17.6736 19.5394 17.7464 19.5909 17.8281 19.5909V19.5909C17.9098 19.5909 17.9827 19.5394 18.0098 19.4623L24.6382 0.667409C24.7792 0.267479 25.1572 0 25.5813 0H26.3957C27.0909 0 27.574 0.692002 27.3344 1.34469L19.5233 22.6174C19.3787 23.0111 19.0039 23.2727 18.5846 23.2727H17.0717C16.6523 23.2727 16.2775 23.0111 16.133 22.6174L8.32188 1.34468C8.08222 0.692002 8.5653 0 9.2606 0H10.075Z" fill="white"/>
<path d="M0.936446 1.52362C0.526935 0.857337 1.00632 0 1.7884 0H2.65823C3.01103 0 3.33773 0.185905 3.51793 0.489212L9.61217 10.7464C9.65535 10.8191 9.73364 10.8636 9.81818 10.8636V10.8636C9.90273 10.8636 9.98101 10.8191 10.0242 10.7464L16.1184 0.489212C16.2986 0.185905 16.6253 0 16.9781 0H17.848C18.63 0 19.1094 0.857338 18.6999 1.52362L11.3753 13.4409C11.2785 13.5984 11.2273 13.7797 11.2273 13.9646V22.2727C11.2273 22.825 10.7796 23.2727 10.2273 23.2727H9.40909C8.85681 23.2727 8.40909 22.825 8.40909 22.2727V13.9646C8.40909 13.7797 8.35784 13.5984 8.26104 13.4409L0.936446 1.52362Z" fill="white"/>
</svg>
